<?xml version="1.0" standalone="no"?><!DOCTYPE svg PUBLIC "-//W3C//DTD SVG 1.1//EN" "http://www.w3.org/Graphics/SVG/1.1/DTD/svg11.dtd"><svg t="1571099920206" class="icon" viewBox="0 0 1024 1024" version="1.1" xmlns="http://www.w3.org/2000/svg" p-id="5454" data-spm-anchor-id="a313x.7781069.0.i18" xmlns:xlink="http://www.w3.org/1999/xlink" width="32" height="32"><defs><style type="text/css"></style></defs><path d="M512 781.59872l-201.23648 167.03488a60.37504 60.37504 0 0 1-85.11488-7.9872 60.57984 60.57984 0 0 1-12.86144-49.74592l52.59264-281.62048-179.89632-135.96672a60.57984 60.57984 0 0 1 24.49408-107.64288l237.03552-47.69792L457.89184 95.0272a60.416 60.416 0 0 1 108.21632 0l110.85824 222.96576 237.03552 47.69792a60.5184 60.5184 0 0 1 24.51456 107.64288l-179.9168 135.96672 39.56736 283.81184a60.5184 60.5184 0 0 1-51.5072 68.32128 60.37504 60.37504 0 0 1-48.4352-14.6432L512 781.59872z" p-id="5455" data-spm-anchor-id="a313x.7781069.0.i16" class="selected" fill="#ffffff"></path></svg>