<svg class="icon" viewBox="0 0 1024 1024" xmlns="http://www.w3.org/2000/svg" data-spm-anchor-id="a313x.7781069.0.i18" width="32" height="32"><defs><style/></defs><path d="M512 781.599L310.764 948.634a60.375 60.375 0 01-85.115-7.988 60.58 60.58 0 01-12.862-49.746l52.593-281.62L85.484 473.313a60.58 60.58 0 0124.494-107.643l237.035-47.698L457.892 95.027a60.416 60.416 0 01108.216 0l110.858 222.966 237.036 47.698a60.518 60.518 0 0124.514 107.643L758.6 609.3l39.567 283.812a60.518 60.518 0 01-51.507 68.322 60.375 60.375 0 01-48.435-14.644L512 781.6z" data-spm-anchor-id="a313x.7781069.0.i16" class="selected" fill="#fff"/></svg>