<svg class="icon" viewBox="0 0 1024 1024" xmlns="http://www.w3.org/2000/svg" width="32" height="32"><defs><style/></defs><path d="M716.8 333.107V757.76a143.36 143.36 0 11-81.92-129.556V163.84a40.96 40.96 0 0153.37-39.035l86.017 24.576A182.067 182.067 0 01901.12 322.847v62.238a20.48 20.48 0 01-27.894 19.088L716.8 333.107zM163.84 245.76h327.68a40.96 40.96 0 110 81.92H163.84a40.96 40.96 0 110-81.92zm0 143.36h327.68a40.96 40.96 0 110 81.92H163.84a40.96 40.96 0 110-81.92zm0 143.36h225.28a40.96 40.96 0 110 81.92H163.84a40.96 40.96 0 110-81.92z"/></svg>